<svg xmlns="http://www.w3.org/2000/svg" viewBox="0 0 240 240" width="240" height="240">
  <defs>
    <linearGradient id="tgLogoGrad" x1="120" y1="0" x2="120" y2="240" gradientUnits="userSpaceOnUse">
      <stop offset="0%" stop-color="#2AABEE"/>
      <stop offset="100%" stop-color="#229ED9"/>
    </linearGradient>
  </defs>
  <circle cx="120" cy="120" r="120" fill="url(#tgLogoGrad)"/>
  <path fill="#ffffff" d="M54.3 118.8c34.8-15.2 58.1-25.2 69.8-30.1 33.3-13.9 40.3-16.3 44.8-16.4 1 0 3.2.2 4.7 1.4 1.2 1 1.6 2.3 1.7 3.3 0 .7.1 2.3-.1 3.5-2.2 23.2-11.8 79.5-16.7 105.7-2.1 11.1-6.2 14.8-10.1 15.2-8.6.8-15.1-5.6-23.4-11.1-13-8.5-20.3-13.8-32.9-22.1-14.6-9.6-5.1-14.9 3.2-23.5 2.2-2.2 39.8-36.5 40.6-39.7.1-.4.2-1.9-.7-2.7-.9-.8-2.2-.5-3.1-.3-1.4.3-22.6 14.3-63.7 42.1-6 4.1-11.5 6.1-16.4 6-5.4-.1-15.8-3.1-23.5-5.6-9.5-3.1-17-4.7-16.4-10 .3-2.7 4.1-5.5 11.4-8.3z"/>
</svg>
